<?xml version="1.0" encoding="utf-8"?>
<!-- Generator: Adobe Illustrator 24.3.0, SVG Export Plug-In . SVG Version: 6.00 Build 0)  -->
<svg version="1.1" id="Layer_1" xmlns="http://www.w3.org/2000/svg" xmlns:xlink="http://www.w3.org/1999/xlink" x="0px" y="0px"
	 viewBox="0 0 877.8 792" style="enable-background:new 0 0 877.8 792;" xml:space="preserve">
<style type="text/css">
	.st0{fill:#0E161F;}
	.st1{fill:#9E4E27;stroke:#0E161F;stroke-width:1.7008;stroke-miterlimit:10;}
	.st2{fill:#1E7F4F;}
	.st3{fill:#F9CE6C;stroke:#0E161F;stroke-width:1.4173;stroke-miterlimit:10;}
	.st4{fill:#CFE4F3;stroke:#0E161F;stroke-width:1.9843;stroke-miterlimit:10;}
	.st5{fill:none;stroke:#0E161F;stroke-width:1.9843;stroke-miterlimit:10;}
	.st6{fill:#F9CE6C;stroke:#0E161F;stroke-width:1.9843;stroke-miterlimit:10;}
	.st7{fill:#2D4D4B;}
	.st8{fill:#3A358D;}
	.st9{fill:#111B24;}
	.st10{fill:#322F30;}
</style>
<g>
	<path class="st0" d="M875.1,547.7c-1,0.5-2,1-3.1,1.4l-0.7,0.3c-25.8,12.1-50,19.2-73.9,21.4c-0.5,0-0.9,0.1-1.3,0.1
		c-3.2,0-5.3-1.3-7.1-4.5c-6.7-11.9-11.7-25.5-15.2-41.7c-1.2-5.6-2.3-11.2-3.5-17.1l-1.4-7.3l-1.3,2.4
		c-18.6,33.6-45.3,76.5-87,110.2l-0.3,0.3l-0.3-0.3c-3.8-4.8-13.1-17.5-15.9-21.6l-0.7-1l-4.5,4.3l0.6,0.7c2.6,3.3,5.7,7.1,8.8,10.9
		c2.6,3.2,5.2,6.4,7.5,9.3l0.3,0.4c5.3,6.6,10.8,13.5,15.7,19.8c3.1,4,6.3,8,9.4,12l0.1,0.1c7.5,9.6,15.2,19.5,23,29.1
		c1,1.2,1.9,2.5,1.7,3.9s-1.4,2.5-2.6,3.4c-37.4,29.1-77.5,52.4-119.1,69.3c-50.1,20.3-101.8,31.6-153.7,33.6
		c-5.9,0.2-11.8,0.3-17.7,0.3c-35.3,0-69.9-4.1-102.8-12.3c-59-14.6-113.9-40.5-163-76.8c-4-2.9-8-6-11.9-8.9l-5.4-4.3
		c3.7-4.7,23.2-30.1,32.7-42.6c10.6-13.9,22.6-29.7,33-43.2l0.6-0.8l-3.6-3l-0.6,0.9c-3.6,5-8.9,11.8-13.1,17.3l-1.9,2.4l-0.3-0.3
		c-32.6-26.6-59.3-60.5-86.5-110l-1.4-2.6l-0.4,2.9c-0.3,1.9-0.5,3.5-0.8,5.2c-3.3,23.9-9.2,42.5-18.5,58.7c-1.3,2.3-2.3,4.1-2.7,5
		c-5.8-0.5-48.9-4.7-70.7-18.2c-2.2-1.4-4.7-2.3-7.2-3.3C7.2,553,6,552.6,4.8,552l-4.6-2l1.4,2.6C25.5,596,50.5,632.1,78,662.9
		c30.2,33.9,65.2,63.4,104.1,87.9l0.8,0.5l4.3-6.3c3-4.4,5.9-8.7,8.8-12.9c2.4-3.5,3.4-4.8,5-4.8c1.3,0,2.8,0.9,5.5,2.5
		c36.1,21.2,74.1,37.2,113,47.3c37.9,9.9,75.8,14.9,112.8,14.9c8.5,0,17.1-0.3,25.5-0.8c34-2.1,67.2-7.7,98.7-16.5
		c27.5-7.8,54.9-18.3,81.5-31.4c14-6.9,26.9-14,39.4-21.8l0.3-0.2l19.3,27.3l0.8-0.5c72.1-45,130.5-110.1,178.5-199.1l1.4-2.6
		L875.1,547.7z M703.2,738.9c2.2-4,5.7-10.3,6.3-11.5c1.9-3.6,3.8-7.3,5.8-11c1.2-2.2,2.3-4.4,3.5-6.6c4.3-8.1,8.8-16.4,13.4-24.6
		c1.6-2.8,1.4-4.6-0.8-7.4c-12.4-15.7-24.8-31.8-36.8-47.4l-6.3-8.2c-0.9-1.1-1.7-2.4-2.5-3.7c-0.4-0.6-0.9-1.3-1.4-2l-0.2-0.3
		l0.3-0.2c31-25.4,57.2-57.5,80.3-98l2-3.4c0.4,3.4,1.1,8.6,1.4,9.9c1,4.2,2.1,8.5,3.4,12.7c4,13.4,9.2,25.1,15.9,35.8
		c1.6,2.6,2.9,3.2,5.8,3c22.4-1.6,44.9-7,66.9-16c0.5-0.2,4.3-2.3,7.4-3.9l-3,4.7c-27.2,49.1-57.8,89.7-93.4,124.1
		C751.3,704,723.8,725.8,703.2,738.9z M724.6,689.3l-27.5,51.4l-15.2-21.9l0.4-0.2C695,710.5,713.9,696.9,724.6,689.3z M17.4,563.2
		c19.7,7.9,38.2,12.7,58.4,14.9c1.8,0.2,11.6,1,12,1h0.6l0.3-0.5c1.7-2.5,1.7-2.5,1.8-2.5c9.1-14.3,15.5-30.6,19.6-49.7
		c0.1-0.3,0.1-0.6,0.1-1c0.1-0.9,0.6-5,1.1-8l1.8,3.8v0.1c1.2,1.9,2.3,3.8,3.4,5.7c2.4,4.1,4.7,8,7.2,11.8
		c20.4,32,42.1,57.3,66.4,77.5c0.1,0,2.2,1.8,4,3.2c-3.3,4.4-19.8,26.1-26.7,35.1c-6.7,8.7-13.6,17.7-20.5,26.5
		c-2,2.6-2.7,4.5-0.8,7.8c6.1,10.9,12,22,17.8,32.8c2,3.7,3.9,7.4,5.9,11.1c0.3,0.6,2,3.7,3.5,6.3l-4.4-3.2
		c-30.7-19.8-59.6-44.4-88.2-75.3c-22.3-24.1-62-87-71.3-101.8C17.3,563.1,17.4,563.2,17.4,563.2z M195.6,723.3l0.3,0.2l-15.5,20.1
		l-27.6-50.9l5.3,4.8l1,0.7C171.3,707.5,183.8,715.7,195.6,723.3z"/>
	<path class="st0" d="M435.4,4.3c45.4,0,89.5,8.9,130.9,26.4c40.1,16.9,76,41.2,106.9,72.1s55.2,66.9,72.1,106.9
		c17.5,41.5,26.4,85.5,26.4,130.9s-8.9,89.5-26.4,130.9c-16.9,40.1-41.2,76-72.1,106.9c-30.9,30.9-66.9,55.2-106.9,72.1
		c-41.5,17.5-85.5,26.4-130.9,26.4s-89.5-8.9-130.9-26.4c-40.1-16.9-76-41.2-106.9-72.1c-30.9-30.9-55.2-66.9-72.1-106.9
		C107.9,430.2,99,386.1,99,340.7s8.9-89.5,26.4-130.9c16.9-40.1,41.2-76,72.1-106.9s66.9-55.2,106.9-72.1
		C346,13.1,390,4.3,435.4,4.3 M435.4,0C247.3,0,94.8,152.5,94.8,340.7c0,188.1,152.5,340.7,340.7,340.7s340.7-152.5,340.7-340.7
		C776.1,152.5,623.6,0,435.4,0L435.4,0z"/>
	<path class="st1" d="M439.7,70c0,0,0.1,26.1,0.1,37.1c0,17,9,20.4,13.8,22.2c1.2,0.4,1,2.1-0.2,2.4H415c-1.2-0.2-1.4-1.9-0.2-2.4
		c4.8-1.7,13.8-5.2,13.8-22.2c0-11,0.1-37.1,0.1-37.1S439.7,70,439.7,70z"/>
	<path class="st2" d="M418.4,92.1c-2-6.2-1.7-14.3,0.8-22.4l0.3-1.1l-1.1,0.4c-5.3,2.1-8.6,6.9-11.8,11.6c-0.9,1.4-1.9,2.7-2.9,4.1
		c1-6,4.9-12,8.1-16.8c0.9-1.3,1.7-2.6,2.4-3.7l0.6-0.9l-1.1,0.1c-7.5,0.4-13.3,7.3-15.9,11.2c1.1-8.1,9.9-13.3,15.3-16.5
		c1.5-0.9,2.7-1.6,3.5-2.2l1.3-1h-1.7c-5.2,0-12.5,2.9-18.1,5.4c3.5-5.5,15.3-10,20-11.8l1.9-0.7l-1.9-0.4c-0.1,0-3.6-0.7-7.7-0.7
		c-3,0-5.5,0.3-7.6,1c4.3-4.2,9.2-5.2,15.6-5.2c1.2,0,2.5,0,4.2,0.1l1.4,0.1l-0.9-1c-3.4-3.8-7.9-6.4-11.9-8.6
		c-0.6-0.3-1.1-0.6-1.7-1c0.9-0.2,1.8-0.2,2.6-0.2c6.3,0,11.8,4.1,17,8l0.8,0.6l0.1-1c0.8-5.4,1.5-10.4,4.1-16.2
		c2.1,3.4,3.3,7.8,4.4,12c0.5,1.8,1,3.7,1.6,5.5l0.4,1.1l0.7-1c4.6-6.9,12.3-9.3,17.6-9.3c0.2,0,0.4,0,0.5,0
		c-4.2,1.8-9.9,5.5-13.2,10.2l-0.6,0.9h1.1c0.6,0,1.2,0,1.8-0.1c1.4-0.1,2.9-0.1,4.3-0.1c5.1,0,10.3,0.7,14.2,5.3
		c-2.6-0.4-6.3-0.8-9.6-0.8c-3.3,0-5.5,0.4-6.8,1.1l-1.2,0.7l1.4,0.3c10.9,2.4,17.9,5.6,21,9.4c-4.2-1.9-10.9-4-15.4-4
		c-0.4,0-0.7,0-1.1,0l-1.5,0.1l1.2,0.9c0.4,0.3,1,0.7,1.6,1.2c4.2,2.9,13.5,9.5,16,16.3c-4.9-3.4-15-9.8-16.3-10l-1-0.2l0.4,0.9
		c0.9,2.3,2.6,4.8,4.3,7.4c2.8,4.2,5.7,8.6,5.9,12.8c-1.7-1.5-3.2-3.4-4.8-5.3c-2.7-3.2-5.6-6.6-9.3-8.8l-1-0.6l0.2,1.2
		c1.3,7.5,2.2,14.8,0.2,21.3c-1.5-8.7-8-21.7-16.6-21.7c-8.4,0-11.5,8.4-12.6,11.6c-0.7,1.9-1.2,3.8-1.7,5.7
		C419.4,88.9,419,90.5,418.4,92.1z"/>
	<path class="st0" d="M434,24.5c1.7,3.2,2.8,7.1,3.8,11c0.5,1.8,1,3.7,1.6,5.5l0.7,2.3l1.3-2c3.8-5.8,10-8.4,14.9-9
		c-3.8,2.1-8.2,5.3-10.9,9.2l-1.3,1.9l2.3-0.1c0.6,0,1.2,0,1.8-0.1c1.4-0.1,2.9-0.1,4.3-0.1c4.5,0,9.1,0.5,12.7,3.9
		c-2.4-0.3-5.3-0.6-8.1-0.6c-3.4,0-5.7,0.4-7.1,1.2l-2.5,1.5l2.8,0.6c8.8,2,15.1,4.4,18.7,7.3c-4.1-1.5-9.3-2.9-12.9-2.9
		c-0.4,0-0.8,0-1.1,0l-2.9,0.3l2.3,1.8c0.4,0.3,1,0.7,1.7,1.2c3.7,2.6,11.7,8.3,15,14.2c-5.1-3.4-13.5-8.7-14.9-9l-2-0.3l0.7,1.9
		c0.9,2.4,2.6,4.9,4.4,7.5c2.4,3.6,4.9,7.4,5.6,11c-1.2-1.3-2.4-2.7-3.6-4.1c-2.8-3.3-5.6-6.7-9.4-8.9l-2.1-1.2l0.4,2.4
		c1.1,6.6,2,13,0.8,18.7c-2.2-8.7-8.5-19.8-16.6-19.8c-8.8,0-12,8.7-13.2,11.9c-0.7,1.9-1.2,3.8-1.8,5.7c-0.3,0.9-0.5,1.9-0.8,2.8
		c-1.4-5.8-0.9-13,1.3-20.3l0.7-2.2l-2.2,0.9c-5.5,2.2-8.8,7.1-12.1,11.8c-0.4,0.6-0.8,1.2-1.2,1.8c1.5-5,4.7-9.8,7.3-13.9
		c0.9-1.3,1.7-2.6,2.4-3.8l1.1-1.8l-2.1,0.1c-6.4,0.3-11.5,5.2-14.6,9.1c2.4-6.3,9.7-10.5,14.3-13.3c1.5-0.9,2.7-1.6,3.5-2.2l2.6-2
		h-3.2h-0.1c-4.6,0-10.8,2.3-16.1,4.5c4.6-4.5,14.5-8.3,18.2-9.8l3.7-1.4l-3.9-0.8c-0.1,0-3.6-0.7-7.8-0.7c-2,0-3.8,0.2-5.4,0.5
		c3.8-2.8,8.1-3.5,13.4-3.5c1.2,0,2.5,0,4.2,0.1l2.7,0.1l-1.8-2c-3.5-3.9-8-6.5-12-8.7c-0.1,0-0.1-0.1-0.2-0.1c0.3,0,0.6,0,0.9,0
		c6.1,0,11.5,4,16.6,7.9l1.5,1.2l0.3-1.9C431.1,34.5,431.7,29.8,434,24.5 M433.8,22.1c-3,6.1-3.8,11.2-4.6,17.2
		c-5.6-4.2-11-8.1-17.3-8.1c-1.3,0-2.7,0.2-4.2,0.6c4.6,2.8,10.4,5.5,14.7,10.2c-1.5-0.1-2.9-0.1-4.2-0.1c-7.3,0-12.9,1.2-17.8,7.3
		c2.7-1.6,6.4-2,9.8-2c4.1,0,7.6,0.7,7.6,0.7c-5.8,2.2-18.8,7.3-21,13.5c4.5-2.1,13.4-6,19.3-6h0.1c-3.8,3-19.5,9.2-19.1,21.2
		c3.1-5.2,9.2-12.4,16.6-12.8c-3.7,6-10.3,14.2-10.7,22.7c5.1-6.1,8.5-14.2,15.7-17c-2.4,7.9-3.1,17.1-0.2,24.3
		c1.5-3.9,2.3-8,3.7-11.8c1.2-3.3,4.2-11.2,12.1-11.2l0,0c8.8,0,15.7,14.9,16.3,23.5c3.1-7.2,2-15.8,0.6-23.8
		c6.2,3.6,9.9,10.6,14.9,14.7c0.7-7.4-7.6-15.2-10.2-21.6c1.2,0.2,13.2,7.7,17.4,10.8c-1.7-8.5-15.3-17-18.3-19.3c0.3,0,0.7,0,1,0
		c5.2,0,13.4,2.9,16.9,4.8c-3.2-6.7-16.3-9.9-22.4-11.3c1.3-0.7,3.7-1,6.5-1c3.8,0,8.1,0.5,10.9,1c-4-5.7-9.6-6.6-15.5-6.6
		c-2,0-4.1,0.1-6.1,0.2c3.7-5.3,11.1-9.6,15.1-10.8c-0.8-0.2-1.8-0.3-2.9-0.3c-5.2,0-13.2,2.3-18,9.6
		C438.4,34.3,437.3,27,433.8,22.1L433.8,22.1z"/>
	<path class="st3" d="M443.6,172.3c1.9,2.4,3.6,4.6-0.5,6.7c-2,1-1.5,2.8-0.3,4.2c1.6,2,3,0.7,4-0.6c1.1-1.4,2-3,3.2-4.7
		c2.5,1.9,4.7,3.8,7.2,5.4c3.8,2.3,8,3.4,12.4,1.8c3.6-1.4,5.7-5.5,4.6-8.9c-1.4-4.4-4.5-2.6-7.4-2c-4.5,1-8.9,1.5-12.5-2.9
		c1.7-2.5,5.9-4,3.7-8.2c-0.5-0.9-1.2-1.9-2.3-1.5c-3.6,1.2-3.6,4.8-5,8.2c-3.4-4-6.4-7.8-9.8-11.2c-13.9-14.3-30.5-27.5-50.3-31.9
		c-15.7-3.5-31.4,1.8-34.9,5.5c3.4,0,9.5-0.7,12.8-0.7c16.5-0.2,31,4.7,44.8,14C421.4,150.9,440.2,168.2,443.6,172.3z"/>
	<path class="st3" d="M427.1,172.6c-1.9,2.4-3.6,4.6,0.5,6.7c2,1,1.5,2.8,0.3,4.2c-1.6,2-3,0.7-4-0.6c-1.1-1.4-2-3-3.2-4.7
		c-2.5,1.9-4.7,3.8-7.2,5.4c-3.8,2.3-8,3.4-12.4,1.8c-3.6-1.4-5.7-5.5-4.6-8.9c1.4-4.4,4.5-2.6,7.4-2c4.5,1,8.9,1.5,12.5-2.9
		c-1.7-2.5-5.9-4-3.7-8.2c0.5-0.9,1.2-1.9,2.3-1.5c3.6,1.2,3.6,4.8,5,8.2c3.4-4,6.4-7.8,9.8-11.2c13.9-14.3,30.5-27.5,50.3-31.9
		c15.7-3.5,31.4,1.8,34.9,5.5c-3.4,0-9.5-0.7-12.8-0.7c-16.5-0.2-31,4.7-44.8,14C449.4,151.2,430.6,168.5,427.1,172.6z"/>
	<circle class="st4" cx="435.8" cy="354.8" r="164.9"/>
	<path class="st5" d="M600.7,354.8H270.9"/>
	<path class="st5" d="M587.8,419H283.9"/>
	<path class="st5" d="M530,490.1H341.6"/>
	<path class="st5" d="M600.7,354.8H270.9"/>
	<path class="st5" d="M587.8,290.5H283.9"/>
	<path class="st5" d="M530,219.4H341.6"/>
	<path class="st5" d="M435.8,519.7V189.8"/>
	<path class="st5" d="M435.8,189.8c0,0,127.9,164.9,0,329.8"/>
	<path class="st5" d="M435.8,189.8c0,0,91.2,47.6,91.2,165.1s-91.2,164.7-91.2,164.7"/>
	<path class="st5" d="M435.8,189.8c0,0,126.3,29.5,126.3,165.1S435.8,519.7,435.8,519.7"/>
	<path class="st5" d="M435.8,189.8c0,0-131.1,164.9,0,329.8"/>
	<path class="st5" d="M435.8,189.8c0,0-93.4,47.6-93.4,165.1s93.4,164.7,93.4,164.7"/>
	<path class="st5" d="M435.8,189.8c0,0-129.4,29.5-129.4,165.1s129.4,164.7,129.4,164.7"/>
	<path class="st6" d="M376.8,243.1c2.3,3.3,6.1,4.3,9.4,6.2c15.2,8.7,27.7,21.1,41.8,31.4c3.6,2.6,7.1,3.9,11.4,4.2
		c9.3,0.6,18.6,1.4,27.8,1.9c2.6,0.2,4.4,1,4.9,3.9c0.5,2.5,2,4.5,4.9,3.7c7.1-1.9,10.3,2.9,11.7,7.9c1.5,5.4,5.6,8.1,8.9,11.3
		c4.4,4.2,9.9,7.3,11.3,14.5c-2.6,2-1.6,4.8,0,7.7c3.1,5.4,6.2,10.8,9.4,16.2c0.7,1.1,1.4,2.6,2.8,2.7c4.8,0.3,6,4.4,8.2,7.5
		c4.2,5.6,8.6,11.1,12.9,16.5c1.1,1.4,2.9,1.5,4.5,1.8c9.9,1.2,19.8,2.4,29.7,3.6c6,0.7,10,6.7,8.2,12.5c-2.2,7.2-4.5,14.3-6.6,21.5
		c-0.8,2.7-2.1,4.1-4.8,5c-10.4,3.5-20.8,7.2-31.1,10.9c-12.7,4.6-26.1,5-39.3,6.8c-14.6,2-25,8.9-31.7,21.8
		c-2.2,4.3-4.4,4.7-7.6,1.2c-1.4-1.6-2.9-1.9-4.9-1.8c-6.4,0.5-12.6-0.3-18.7-2c-5.2-1.4-10.6-0.3-15.8,0.2
		c-2.2,0.2-4.2,0.3-6.2-0.8c-4-2.1-6.5-0.5-8,3.8c-1.1,3.2,0.9,6.7-1.4,9.6l0,0c-0.2,0.2-0.5,0.4-0.7,0.7c-0.6-0.2-1.3-0.5-1.9-0.7
		c-3.4-6.3-5.6-13.4-11.7-18c-5.2-3.8-7.4-9.8-9.6-15.4c-4-10-9.2-18-19.6-23c-4.9-2.4-8.8-8.3-9.8-15.1
		c-1.8-11.5-0.6-23.8-9.1-33.8c-3-3.5-5.7-7.1-9.9-8.9c-5.1-2.2-7.8-5.6-7.6-11.3c0.1-3.1-1.9-5.7-3.6-8.1
		c-7.9-11.8-16-23.4-23.3-35.6c-0.7-1.1-1.5-2.7-2.6-2.9c-8-1.9-5-7.9-4.8-12.6c0.2-5.1,1.9-6.6,6.9-5.1c8.6,2.6,14.5-0.2,18.8-7.6
		c1-1.8,2.8-2.2,4.7-2.4c4.4-0.5,8.5-1.6,10.1-6.6c0.6-1.9,3.3-1.7,3.9-3.9c-3.2-5.3-8.4-9.1-12.4-14.4c5.8-2.8,12.2-3,17.7-5.5
		C355.3,237.4,366,239.1,376.8,243.1C376.7,243,376.8,243.1,376.8,243.1z"/>
	<path class="st7" d="M151.9,282.9L151.9,282.9l0.1-0.1L151.9,282.9z"/>
	<path class="st7" d="M636.8,360L636.8,360c0.1,0,0.1,0,0.1-0.1L636.8,360z"/>
	<path class="st7" d="M676,422c12.7-5.2,24.2-12.4,34.5-21.6c5-4.5,9.8-9.3,13.4-15.2c-0.8-0.3-1.1-0.5-1.4-0.5
		c-0.8,0.2-1.6,0.5-2.3,0.7c-14,5-24.8,14.7-35.3,24.6c-3.2,3-6.3,6-10.9,7.4c0.7-11.2,1.8-13.1,10.2-18.8c1.6-1.1,3.1-2.5,4.7-3.7
		c15.5-11.6,28.9-25,37.7-42.5c-0.2-0.2-0.5-0.4-0.7-0.7c-1.7,0.2-2.9,1.4-4.3,2.4c-13.5,9.7-25,21.4-35.4,34.3
		c-1.7,2.1-3.2,4.5-6.6,6.6c2.1-8.9,0.3-17.3,8.2-23.9c15.8-13.2,27.1-30,35.8-48.6c0.6-1.3,2.3-2.6,0.6-4.8
		c-16.4,13.1-28.7,29.5-39.4,47.5c-0.6-5.4-0.3-10.4-0.6-15.5c-0.2-3.5,0.8-5.9,3.2-8.4c10.2-10.4,18.9-21.9,25.5-35
		c3.8-7.6,6.9-15.5,7.9-24.1c-2.9,2.3-5.6,4.8-7.9,7.5c-9.7,11.5-16.6,24.8-23.2,38.3c-1.2,2.5-2.1,5.5-5.7,7.5
		c-0.3-8-2.5-14.8,2.7-21.8c14-19,19.8-41,22.4-65.5c-15,18.2-19.8,39.4-25.8,60c-2.1-0.7-2.2-1.8-2.4-2.7
		c-0.9-4.3-1.4-8.8-2.9-12.8c-0.8-2.1-0.5-3,0.5-4.7c12.1-19.8,15.7-41.6,15.1-65.6c-10.6,18.4-13.8,37.7-17.4,57.2
		c-2.5-6.4-7.9-11.6-4.8-19.3c6.2-15.3,9-31.3,8.6-47.8c-0.1-5.7-0.9-11.3-1.3-17c-3.2,4.6-4.7,9.3-5.8,14.2
		c-3,13.3-2.9,26.8-3.7,40.2c-0.1,2.1,0.7,4.7-2.5,6.2c-3.2-8.7-9.3-16.3-4.9-26.5c1.9-4.5,2.2-9.7,2.7-14.7
		c1.4-14.3,1.2-28.5-2.7-42.6c-1.3,0.5-1.5,1.5-1.7,2.5c-4.1,15.1-6.4,30.2-3.9,45.9c0.5,3,1.8,6.5-1.6,9.8
		c-4.4-8.4-11-15.2-9.6-25.7c1-7.2,0.6-14.7-0.2-22c-1.1-11.4-3.1-22.6-8.7-34c-2.6,19.5,1,37.6,3.7,55.9
		c-5.8-7.1-13.3-12.4-13.3-23c0-13.1-2.9-26.1-7.1-38.6c-1.9-5.7-3.9-11.4-7.7-16.9c-2.6,19.5,4.9,36.6,8.8,54.3
		c-7-4.3-12.2-9.9-17.8-15c-1.5-1.4-1.4-3.3-1.5-5.1c-1.4-15.6-5.3-30.4-12.1-44.5c-1.9-4-4-8.1-7.7-11.8
		c0.3,19.7,7.5,36.7,15.8,54.3c-3.4-0.9-4.8-2-6.3-3c-0.9-0.6-5-3.7-8.2-5.2c0.2,0.1,0.5,0.1,0.7,0.2c-7-2.8-7.2-9.3-9.1-14.8
		c-1.6-4.6-3.1-9.1-4.9-13.6c-5-12.2-12.8-22.6-21.6-32.3c1.8,18.8,12.8,33.3,21.5,49c-9.6-3.9-16.9-11.2-26.5-14.2
		c-9.3-2.9-18.8-5.5-29.7-5.6c11.5,8.8,19.9,12.2,37.7,14.8c6.6,1,10.8,5.6,17.1,9.7c-8,1.4-14.5,2.4-20.9,3.7
		c-6.5,1.4-13.2,2.2-19.4,7.2c9.4,1.8,17.9,1.4,26.5,0.6c8.4-0.8,16.2-5.7,25-5.2c3,2.6,13.9,9.4,15.4,14
		c-16.5-1.8-32.7-3.5-48.8-0.2c0.5,1.9,2,1.9,3.2,2.4c13.1,4.7,26.5,6.1,40.3,4.2c3.9-0.5,8.3-2.6,11.6-0.8
		c6.5,3.5,11.6,9,16.5,16.4c-17.2-3.2-33.3-6.9-49.8-3.8c1.1,1.1,2.2,1.7,3.4,2.2c13.8,5.9,28.2,8.1,43,6.5
		c6.7-0.7,11.1,0.9,14.3,6.7c1.6,2.9,4.7,5,4.4,9.4c-16.7-4.6-32.9-8.8-50.6-8.3c1.8,2.6,3.9,3.1,5.8,4c15,7.1,31,9.7,47.4,10.2
		c2.2,0.1,4.5-0.1,5.7,2.2c2.8,5.6,6.4,10.8,8.8,17.9c-16.2-4.7-30.6-12.7-47.2-13.1c0.2,0.5,0.2,0.9,0.4,1.1
		c0.6,0.6,1.2,1.1,1.9,1.6c13.7,8.6,28.3,14.4,44.7,15c1.5,0.1,3.3-0.1,4,1.4c3.4,7.1,6.8,14.2,8.8,23.1c-16-7-30.6-15.2-48.4-17.1
		c14.1,12.6,29.9,18.2,46.5,22.1c1.6,0.4,3.8-0.3,4.6,1.4c2.3,5.4,4.6,10.8,4.4,17.9c-14.8-9.2-29.3-17-46-20.1
		c0.2,0.8,0.2,1.2,0.3,1.4c0.4,0.5,0.9,1,1.4,1.4c11.9,9.5,24.9,17.3,39.5,21.8c5.1,1.6,8.2,3.9,8.3,9.3c0.1,5.3,2.5,10.5,0.8,16.7
		c-14.2-12.7-28.4-24.2-46.6-32.4c1.2,1.8,1.5,2.4,1.9,2.9c11.8,14.8,26.5,26,43.3,34.7c1.2,0.6,2.8,0.9,3,2.3c1,7,1.6,14,0.1,22.2
		c-12.8-13.3-25.1-25.3-41.7-34.2c8.2,15.2,23.4,29.8,37.8,36.7c1.6,0.8,3.9,1.2,3.8,3.4c-0.2,6-0.8,12-1.2,18
		c-0.4,0.1-0.9,0.3-1.3,0.4c-10.4-12.6-21-25-34.6-34.6c-0.1,0.7-0.3,1.1-0.2,1.3c6.8,15.9,16.8,29.1,31.6,38.2
		c1.3,0.8,3,1.3,2.8,3.1c-0.8,5.1-1.8,10.2-2.7,15.1c-2.2,0.1-2.6-0.9-3.1-1.7c-5.9-9.1-12.4-17.8-20.2-25.3c-2.6-2.6-4.8-6-9-6.6
		c-0.3,1.6,0.5,2.9,1.1,4.2c6.1,13.8,14.8,25.6,26.9,34.8c1,0.8,2.8,1.2,2.3,2.9c-1.8,5.4-3.4,10.9-6.2,16.2c-2.5-2-3-4.4-4.1-6.4
		c-5.1-9.8-10.9-19.1-18.3-27.3c-1.2-1.3-2.3-3.5-5.1-1.9c5.5,14.4,12.3,27.9,22.8,39.4c1.1,1.2,3,2.2,2.1,4.1
		c-2,4.8-4.3,9.5-7,15.5c-6.5-17-12.8-32.5-25-45.3c-0.5,1.3-0.8,1.6-0.7,1.8c4.7,16.2,10.6,31.8,21,45.3c0.8,1.1,1.9,2.2,1.2,3.6
		c-3,5.4-6.2,10.7-10,17.2c-2.6-9.8-4.6-18.1-7.9-26.1c-4.1-10.2-9.2-19.7-12.6-22.2c1,14.6,7.2,33.4,15.8,47.8
		c1,1.7,3.1,3.7,2.1,5.3c-3.2,5.2-6.9,10.2-12.1,15.4c-3.4-17.5-6.5-33.6-15.7-48.4c-1.3,2.3-0.6,3.9-0.5,5.5
		c1.6,15.2,6.1,29.6,12.3,43.5c0.6,1.5,2.1,3,0.8,4.6c-4.1,4.9-8.1,9.8-14,14.1c-2.1-16.7-4-32.5-10.2-47.7
		c-1.7,1.5-1.1,2.9-1.2,4.1c-0.5,14.9,1.8,29.5,5.5,43.9c0.4,1.7,1.6,3.6,0.4,5.3c-4.8,6.8-11.1,12-19.3,16.4
		c2.6-18.2,3.3-35.4-2.2-52.3c-1.9,1-1.5,2.7-1.8,4.1c-3.3,15.2-2.6,30.5-0.6,45.7c0.6,4.8-0.5,7.4-4.3,9.9
		c-6.6,4.2-13,8.8-21.4,11.9c4.7-18.3,8.8-35.6,7.3-53.7c-1.7,0.1-1.7,1.1-1.9,1.8c-6.3,16.6-9.9,33.8-11.9,51.4
		c-0.2,1.8,0.2,4.1-1.5,5.1c-7.6,4.8-15.8,8.1-25.8,10c7.7-16.6,14.1-32.4,15.3-49.9c-2,0.1-2.2,1.5-2.8,2.3
		c-10,14.4-16.4,30.4-20.2,47.4c-0.4,1.6-0.4,3.5-2.2,4.2c-6.1,2.4-12.5,4-20.2,4.7c9.8-17.2,19.2-33.5,20.1-52.8
		c-11.7,14.6-20.5,30.7-25.1,48.8c-1.2,4.6-3.6,5.9-7.8,6.6c-19.4,2.9-38.9,2-58.4,1.7c-6.6-0.1-13.3-0.6-19.9-2c-3-0.6-5-1.5-6-5.3
		c-5.1-19-14.2-36.1-26.3-51.6l0.1-0.1c-1,1-0.4,2.2-0.3,3.3c2.5,16.8,9.4,31.8,18,46.2c0.8,1.4,2.7,2.6,1.6,5
		c-5.9-0.2-11.3-2.3-17-3.7c-2.8-0.7-3.9-2.3-4.2-4.8c-1-6.8-3.3-13.2-5.6-19.6c-4.1-11.1-9.4-21.5-17.3-32
		c0.8,18.8,7.8,34.5,14.8,51c-8.4-0.9-14.7-4.2-21.2-7c-3.9-1.6-5.5-4-5.8-8.2c-0.7-9.3-2.2-18.5-4.5-27.6
		c-2.2-8.6-4.3-17.2-8.6-25.1c-2.4,18,2.3,35.1,6.4,53.3c-8.9-3.1-15.5-8.1-22.3-12.7c-2.7-1.8-3.6-3.9-3.1-7.1
		c1.4-10.1,2-20.2,1.7-30.4c-0.2-8.3-1.8-17.3-4-21.5c-5.6,17.1-4.4,34.3-2.6,52.1c-5.4-2.3-8.7-5.4-12.3-8.4c-5.5-4.6-9-9.4-5.3-17
		c1.6-3.3,1.7-7.4,2.4-11.2c1.9-10.7,2.6-21.5,1.3-32.4c-6.4,14.9-8.2,30.8-10.6,47.5c-5.5-4.5-9.4-9-13.3-13.5
		c-1.4-1.6-0.6-3.2,0.1-4.7c3.6-8,6.7-16.3,8.9-24.8c2.1-7.9,3.5-16,3.4-24.2c-5.2,6.9-8.2,14.8-10.4,22.9c-2.2,8.1-3.9,16.3-6,25.5
		c-3.7-4.7-6.6-8.9-9.9-12.8c-2-2.4-2.2-4.3-0.5-7.1c5.1-8.4,9-17.4,12.1-26.8c3.3-9.7,4.8-18.3,4-22.9
		c-10.1,14.5-15.5,30.7-20.1,47.4c-3.3-4.3-5.7-8.7-8.4-12.8c-1.8-2.6-1.7-4.4,0.2-7c8.6-11.6,14.6-24.6,18.5-38.5
		c0.7-2.5,2.2-5,1.3-8.5c-11.7,13.3-18.6,28.6-24.9,45.7c-2.1-4.5-3.2-7.8-5-10.7c-2.3-4-2.3-7.1,1.3-10.5c2.9-2.7,5.1-6.2,7.4-9.4
		c6.6-9.4,11.5-19.6,14.3-30.9c-6.4,5-11.2,11.3-15.4,18.1c-4.1,6.6-7.8,13.4-12.1,20.7c-2.2-5.7-3.9-10.3-5.7-14.9
		c-0.8-2.1-0.3-3.3,1.5-4.6c5.2-3.6,9.6-8.2,13.8-13c6.9-7.9,11.8-17.1,15.8-28.2c-7.6,5.4-13.2,11.1-18.2,17.3
		c-4.9,6.1-9.4,12.5-14.9,19.8c-1.1-5.7-1.9-10.1-2.8-14.4c-0.5-2.4,0.1-3.9,2.4-5.3c5.2-3,9.9-6.6,14.1-11c7.5-8,13.7-16.8,17-27.5
		c-13.6,8.9-23.9,21.4-34.8,33.3c-1.1-6-1.5-11.6-2-17.2c-0.2-2.2,1.3-3,2.8-3.6c8.8-3.9,16.1-10,23.1-16.3c6.2-5.6,11.3-12.3,16-21
		c-16.8,8.9-29,21.1-42.1,34.4c-0.4-7.9-0.7-14.3,0-20.7c0.2-2.3,1.7-3.4,3.6-4.3c7.8-3.7,15.1-8.4,22-13.7
		c8.4-6.4,15.8-13.9,21.8-22.6c-17.3,7.3-31.6,18.9-45.9,31.7c-0.9-5,0.3-8.5,0.4-12.1c0.3-7.8,2.7-13.8,11.6-15
		c1.8-0.2,3.5-1.2,5.1-1.9c12.4-5.4,23.9-12,33.6-21.6c-16.8,2.7-31.4,10.8-46.4,19.8c0-4,0-7,1.1-9.9c2.1-5.7,4.5-10.1,12-10.7
		c8.2-0.7,16-4.2,23.4-7.9c6.8-3.3,13.3-7.1,19.3-13.5c-17.6,2.9-32.5,10.2-48.3,17.7c1.4-7.6,4.6-13.5,6.9-19.6
		c1.4-3.6,3.4-5,7.3-5.2c14.7-0.9,28.3-5.3,40.6-13.4c1.8-1.2,4.6-1.5,5-4.1c-16.6,0.2-31.2,8.2-47.6,13.4
		c2.2-6.7,5.6-11.3,7.9-16.3c1.5-3.2,3.7-4.2,7-4.2c11.9-0.1,23.6-1.8,34.9-5.4c6-1.9,12-4.1,17-8.1c-17.1-1.2-33.2,3.6-50,7.6
		c1.3-5.5,4.7-8.4,6.9-12c2.3-3.6,5.2-4.4,9.3-4c10.8,1.2,21.6,0.7,32.2-1.9c6-1.5,12-3.2,18.3-7c-17.6-2.9-33.6,0.9-50.5,3.9
		c3.2-6.4,8.1-10.1,12.6-14.2c2.4-2.2,5-2.7,8.2-2.1c11.5,2.1,23.1,2.9,34.7,0.3c5.3-1.2,10.8-2.2,16.6-5.5
		c-17.4-3.9-33.7-1.6-50.3-0.2c0.6-1.5,0.9-2.2,1.2-3l0,0c5-4.5,10-9,16.4-11.7c16,5.1,32.1,8.9,49,4.9c-11.9-7-25.4-7.6-39.8-10.4
		c7-5.2,12.5-9.8,20.5-10.2c5.8-0.3,11.5-2.1,16.9-4.1c6-2.2,11.6-5.2,17.1-10.1c-21.4,0.6-39.2,8.1-55.8,20.1
		c8.5-16,19.3-30.3,21.5-49.9c-6.5,8.1-12.6,14.9-16.9,23c-5.9,10.9-9.5,22.7-13.1,34.4c-5.8,3-10.9,7.1-15.8,11.3
		c-0.9-0.1-1.8,1.1-3.4-0.6c8.2-16.4,15.5-33.4,15.6-53.8c-11.6,16.1-17.5,33.4-18.9,51.5c-1.1,14-12.5,17.8-20,25.8
		c3.7-18,11.3-35.1,8.3-54.8c-1.1,2.2-1.8,3.4-2.5,4.8c-8,16.8-11.4,34.8-12.4,53.1c-0.5,9.7-7.7,14.3-13,20.9
		c2.7-18.3,6.2-36.3,3.7-55.9c-0.9,1.7-1.2,2.2-1.4,2.7c-7.3,18.3-8.9,37.4-7.5,56.9c0.6,9-6.4,14.5-10.1,21.6
		c-2.4-10,0.8-19.6-0.2-29.4c-1-9.6-2.3-19.1-6.2-29c-5,18.7-5,42.5,0.7,61.8c2.7,9.1-3.6,14.7-6.7,21.8
		c-3.3-20.2-1.1-41.2-10.6-61.1c-4.6,22.9-1.6,44.1,6.3,64.5c3.3,8.6-2.2,13.8-4.4,20.7c-3.4-19.5-6.6-38.8-16.8-56.5
		c-2.4,19.1,3.6,46.7,13.7,63.3c0.9,1.4,2,2.8,1.6,4.6c-1.3,5.9-2.7,11.7-4.1,17.6c-7.3-20.4-12-41.6-26.4-58.6
		c1.7,22.9,7.7,44.6,21.4,63.3c5.3,7.3,3.3,14.1,2.6,22.1c-3.2-2.2-4.1-5-5.3-7.4c-5.8-11.6-11.5-23.3-19.6-33.6
		c-3.3-4.2-6.2-9-11.3-11.5c-1,2.7,0.4,5.2,1.1,7.5c5.6,17,14.8,31.9,26.7,45.2c2.9,3.2,7.3,5.8,8,10c1.2,6.4,1.2,13.1,0.4,21.2
		c-6.3-10.2-11.8-19.3-18.4-27.5c-6.7-8.2-13.9-15.8-22.8-22.7c0.1,1.2,0,1.7,0.2,2.1c8.8,19.9,20.8,37.5,36.9,52.2
		c6.1,5.5,9.5,15.4,7.9,24.4c-13.8-16.9-27.6-33.1-46.8-44.7c-0.1,2.8,1.7,3.4,2.4,4.6c10,18.5,24.8,32.6,42.1,43.8
		c7.3,4.7,7.6,11.2,8.8,18.4c-16.8-10.9-29.3-28.1-49.9-33.2c0,0.5,0,0.8,0.1,1c0.6,1,1.3,1.9,2,2.8c11.8,15.1,27.1,25.4,44.3,33.2
		c7,3.2,11.4,10.2,11.2,19.1c-17.2-12.8-35-23.6-56.3-30c16,17.2,34.3,28.5,55.4,35.3c6.4,2.1,11.3,9.1,11.7,16.6
		c-10.4-5.5-20.5-11.2-31.2-15.7c-16.2-6.9-27.9-10.2-32.7-9.1c31.5,21.3,31.5,21.3,66.1,30.5c3.6,1,7.8,7,7.6,11.2
		c-27.7-9.8-54-16.3-60.7-14.8c19.1,12.8,40,20.1,62.6,22.7c6.7,0.8,12.9,6.9,14.2,14.5c-19.9-6.3-40-10.3-60.8-9.8
		c0.5,1,1.2,1.4,1.8,1.8c18.8,11,39.4,15.3,60.7,15.1c9.1-0.1,11.5,5.8,15.8,11c-20.3-3.3-40.3-7.4-61.1-5c1.3,2.1,3.3,2.5,5.1,3.2
		c18.8,8.2,38.8,11.2,59,10.3c9.4-0.4,13.3,5.3,18.5,10.8c-21.2-1.5-42.3-3.9-64.7,0.3c2.2,1.1,3,1.6,3.9,2
		c20.9,8.8,42.8,9.8,64.6,6.1c12.6-2.1,18.2,7,26.7,11.9c-22.6,2.8-45.5,1.3-68.6,8.8c1.8,0.6,2.4,0.8,3,0.9
		c24.6,6.6,49.2,5.8,73.4-1.4c11-3.2,18,4.5,27,7c-10.9,3.1-21.7,5.1-32.4,7.7c-10.8,2.7-21.6,5.4-32.7,11
		c12.1,2.2,22.7,2.3,33.3,0.7c15.1-2.3,29.5-6.7,43.3-13c6.3-2.8,11,0.7,16.6,2c-11.6,6.7-22.8,13.4-32.9,21.8
		c-10.1,8.4-19.1,17.8-26.8,29.3c6.9,2.2,13.4,3.7,19.4,6.3c3.7,1.6,5,0.3,6.8-2.3c5.4-7.7,11.8-14.4,18.5-20.8
		c36.6-35.2,97.5-36.1,134.3-13.5c14.2,8.7,26.1,19.9,35.9,33.4c1.4,1.9,2.3,4.8,5.7,3.8c6.9-2.2,13.7-4.5,21.2-7
		c-15.4-22.7-36-38.4-60.3-50.7c8.5-4.3,15.2-3.2,22.6-0.2c16.8,6.9,34.2,12.2,52.7,11.9c5.8-0.1,11.7,0.1,18.1-2.1
		c-21.3-9.6-43.4-12.9-65.1-18.1c5.5-2.8,11.1-4.9,16.5-7.3c2.7-1.2,5.2-1.3,8.1-0.5c18.4,5.4,37.1,7.6,56.3,5.7
		c3.6-0.4,7.3-0.9,10.9-1.6c3.5-0.7,7.2-1.1,11.7-3.2c-23-7.1-45.9-6-69.7-7.8c5.2-5,10.6-7.1,14.9-10.6c3.1-2.5,6.2-3,10.2-2.4
		c17,2.7,34.1,3.2,51.1-0.6c6.8-1.5,13.7-3.2,20.1-7.2c-21.5-4.5-42.6-1.8-64.9,0.1c6.1-6.8,10.5-11.7,19.5-11.3
		c18.6,0.9,36.9-1.7,54.4-8.5c3.2-1.2,6.8-2,9.5-4.9c-21.1-2.5-41.1,1.7-62.5,5.8c5.4-7.4,9.4-12.3,19-12c16.7,0.6,33.1-3,48.6-9.8
		c4.3-1.9,8.6-3.8,13.2-7.5c-11.5-0.4-21.6,1.1-31.7,2.7c-10.2,1.6-20.2,4.6-30.6,7.5c2.2-8.7,7.8-13.8,15.4-14.5
		c8.8-0.8,17.3-2.9,25.7-5.4c12.8-3.9,24.8-9.7,35.7-17.6c-21.1,2-41,9-61.2,15c2.7-5.5,4.6-10.6,12.3-11.7c14-2,27.3-7.1,39.7-14.1
		c8.1-4.6,15.5-9.9,23.5-17.1c-15.1,3.3-28.1,8-40.9,13.8c-8,3.6-15.2,8.8-23.5,11.7c-0.3,0.1-0.7,0.1-1,0.2c0.1-0.3,0.2-0.7,0.3-1
		c0.9-4.1,3.4-7.6,4.9-11.4c0.7-1.7,2.1-2.3,3.8-2.8c15.2-4.2,29.2-11.1,41.6-20.7c5.1-3.9,10.4-7.9,13.8-13.8
		c-19.8,5.6-36.9,16.4-53.9,28.6c0-4.4,2-7.1,2.7-10.1C669.6,426.3,671.8,423.7,676,422z"/>
	<path class="st8" d="M436.4,300.4l-63.9,110.8h127.9L436.4,300.4l-63.9,110.8h127.9L436.4,300.4z"/>
	<path class="st9" d="M370,412.7l66.4-115.1l66.5,115.1H370z"/>
	<path class="st8" d="M436.4,300.4l-63.9,110.8h127.9L436.4,300.4l-63.9,110.8h127.9L436.4,300.4z"/>
	<path class="st10" d="M375.9,738c0.7-7.7,2.8-17.2,1.7-24.7c-0.3-2-1.2-2.3-2-4.3c-2.2-5.8-1.9-8,3.1-12.5c3.3,4.1,7,7.8,12.3,11.5
		c-3.3,1.6-6,5-8.6,5.8c-1,2.8-0.1,9.4-0.6,12.7c-1.3,8.7,4.4,14.3,7.9,20.4c-5,7.8-6.2,7.6-14.9-2.4c-15.9,3.8-31.4,0.2-46.8-3
		c-16.6-3.4-32.5-9.1-48.2-15.5c-7.2-3-14.9-6.3-13.9-16.9c-11.2,4.8-23.1,0.5-24.2-5c-0.8-4.2,0.7-7.3,4.1-10.3
		c0,9.1,8.1,12.2,16.4,10.1c3.6-0.9,5-4,5.4-7.1c0.5-3.3,0.8-6.8,0.9-10.1c0.1-2.9,1.7-3.8,4.4-4.6c0.5,6.6-0.7,12.9-1.7,19
		c-0.9,5.3,1,8.7,4.7,11.6c8.4,6.7,18.6,9.4,28.6,12.5c17.1,5.4,34.5,10,52.3,12.5C362.8,738.4,369.3,738,375.9,738z"/>
	<path class="st10" d="M587.8,711.7c-1.3,1.2-2.5,2.4-3.7,3.5c-4.4,3.8-9,3.1-12.2-1.7c-4.2-6.3-3-16.3,2.5-21
		c2.4-2.1,4.9-2.7,7.8-1.1c7,3.8,14.2,19.8,13,27.7c-1.1,7-6.1,10-11.6,12.4c-17.7,7.7-35.7,14.4-55,16.7c-4.3,0.5-8.6,0.7-13,0.3
		c-14-1.2-20.1-6.8-23.5-20.8c-2.2-8.9-3.5-18-7.2-26.4c-1-2.2-0.9-4.1,1.3-5c2.5-1,3.2,1.4,3.7,3c2.4,7.9,4.7,15.9,6.7,23.9
		c2.4,9.5,7.1,14.2,19.9,14.6c23,0.8,44-6.9,64.9-15.3c3-1.2,5.3-3.4,7.2-6C589.7,714.9,589.9,713.6,587.8,711.7z M582.3,701.1
		c-3.6-1.9-6-1.4-8.1,1c-0.8,0.9-0.4,2.1,0.6,2.5C578.1,706,579.9,703.9,582.3,701.1z"/>
	<path class="st10" d="M453.4,726c-6.9-3.1-9.5-8-8.4-14.7c1.2-6.8,3.7-12.8,11.2-15c4.8-1.4,8.2,0.8,11,4.3
		c-1.1,2.4-2.9,1.5-4.4,1.6c-3.7,0.3-7.4,0.8-9.3,4.7c-1.1,2.2-0.3,4.2,1.4,5.9c3.1,2.9,6.3,3.5,10.5,2.1c4.7-1.5,8.3-4.6,12.7-7.1
		c1.2,4.3-0.2,7.1-3.5,9.1c-5.5,3.4-11.1,6.8-15.6,11.5c-5.2,5.5-8.4,12.1-7.4,19.8c1.2,8.8,7.9,12.2,19.1,13.1
		c10.4,0.8,20.4-2.1,30.2-5.2c1.7-0.5,3.4-1.4,6.5-1.2c-6.1,6.1-11.8,10.6-19.5,12.3c-7.8,1.7-15.6,2.8-23.6,1.2
		c-15.8-3.1-20.8-14.1-17.3-29.4C448.2,734.5,450.8,730.6,453.4,726z"/>
	<path class="st10" d="M627.3,647.8c3.4,2.5,7.1,3,11,3.1c6.3,0.2,6.8,0.9,5.8,7c-0.5,2.8,1.3,4.4,2.6,6.2c2.3,3.3,4.8,6.3,7.3,9.5
		c4.2,5.4,5.1,11.4,3.3,17.9c-0.2,0.6-0.2,1.4-0.6,1.8c-6.6,6.1-13.7,11.6-22.3,14.6c-2.7,0.9-5.1-1.4-8.1-1.1
		c-0.7,7.8-7.7,10.1-13,13.6c-3.1,2.1-6.9,1.2-8.7-2.8c-1-2.2-1.5-4.6-2.4-7.3c5.9,2.5,17.2-2.6,18.6-8c0.8-3.3-1.6-5-4-6.8
		c-5.2-3.8-5.2-4-3-10.4c3.3,3.1,7,6.2,10.2,9.6c3.8,4,8,4.8,12.7,1.8c5-3.3,9.8-6.7,14.1-11c2.2-2.2,2.4-3.8,0.4-6.3
		c-4.4-5.7-9-11.1-13.7-16.4c-1.3-1.5-2.9-1.4-4.4-1.8C625.7,658.8,624,655.1,627.3,647.8z"/>
	<path class="st10" d="M222,679c1.9-4.5,3.6-6.8,8.8-5.2c6.2,2,10.5-2.6,9.5-9.3c-0.3-1.8-1-3.8,1.4-4.6c2-0.7,4.3-1.9,6.1-0.3
		c1.6,1.4,2.7,3.3,1.9,5.8c-1.5,4.8-4.5,8.5-8.6,11.2c-1.2,0.8-2.5,1.6-3.4,2.7c3.6,7.2-1.1,15-10.2,16.9c-11,2.4-21.2-0.1-30.6-5.5
		c-11.9-6.8-13.1-18.3-3.6-29.4c3.9-4.5,9-7.7,14.4-10.4c1.2,2.3-0.6,2.8-1.7,3.6c-3.6,2.7-7.2,5.5-9.7,9.3
		c-4,6.2-2.7,13.2,3.9,18.4c7.1,5.7,15.6,8,24.6,8.4c1.6,0.1,3.5,0.4,4.3-1.6c0.7-1.7,0.1-3.4-1.2-4.6
		C226,682.5,223.9,680.7,222,679z"/>
	<path class="st10" d="M411,698.6c0.8,6.3,1.7,11.4,2.1,16.6c0.6,9.3,1,18.5,1.4,27.8c0.2,5.3-1.3,8.6-5.2,11.6c-1.4-0.6-1-2-1.1-3
		c-0.9-14.2-1.7-28.4-2.5-42.6C405.4,705.1,406.5,701.9,411,698.6z"/>
	<path class="st10" d="M651.6,634.7c11.5,14.2,28.9,23,29.5,43.9c-1.8-2.3-3.6-4.6-5.5-6.8c-7.2-8.2-14.3-16.6-21.9-24.5
		C650.2,643.8,650,640.2,651.6,634.7z"/>
	<path class="st10" d="M298.8,703c-0.4-9.6,28.1-3.7,41.9-6.5c0,0.2-1.7,3.5-6.1,4.2C325.4,702.2,307.6,699.7,298.8,703z"/>
	<path class="st10" d="M227.1,713.4c-6.6,6.3-6.6,6.3-12.5,0.6c-3,2.6-6.2,3.1-8.2-1.2c-2.1-4.8,2.8-5.4,4.8-7.8
		c2.8,1,3.4,4.2,6.4,5.2C222.4,705.5,224.3,710.3,227.1,713.4z"/>
	<path class="st10" d="M597.9,669.2c1.2-2.3-1.1-4.5-0.3-6.8c2.4-0.7,2.7,3.7,5.2,2.8c2.3-2.2-2-6.1-0.7-7.1s4.8,4.4,4.6,8
		c-0.2,3-7.2,8.9-10.3,9.1c-4.2,0.3-5.2-8.9-3.7-9.2S594.8,670.1,597.9,669.2z"/>
	<path class="st10" d="M547.7,695.3c2.8,1,6.8,0,5.7,4.4c-0.7,2.9,0.3,7.8-5.4,7.1c-2.7-0.3-5.9-0.6-4.9-4.5
		C543.7,699.5,543.3,695.3,547.7,695.3z"/>
	<path class="st10" d="M240.6,650.1l-5.8,3.3c-0.6,0.3-1.3,0.2-1.7-0.3l-3-3.4c-0.5-0.6-0.4-1.5,0.1-2l4.6-4.1
		c0.5-0.5,1.4-0.5,1.9,0.1l4.2,4.2C241.6,648.6,241.4,649.7,240.6,650.1z"/>
</g>
</svg>
